<svg xmlns="http://www.w3.org/2000/svg" viewBox="0 0 500 500"><defs><style>.cls-1,.cls-4,.cls-6,.cls-7,.cls-9{fill:none;stroke-linecap:round;stroke-linejoin:round}.cls-1,.cls-4,.cls-6{stroke:#006aac}.cls-1{stroke-width:30px}.cls-2{fill:#41bf2e}.cls-3{fill:#fdec00}.cls-4,.cls-9{stroke-width:23px}.cls-5{fill:#00c2ff}.cls-6{stroke-width:15px}.cls-7,.cls-9{stroke:#008d5a}.cls-7{stroke-width:16px}.cls-8{fill:#fdad00}</style></defs><g id="Multiplayer"><path class="cls-1" d="M112.93 135.66L387.07 135.66"/><path class="cls-1" d="M387.07 381.52L387.07 107.37"/><path class="cls-1" d="M120.86 381.52L120.86 107.37"/><path class="cls-1" d="M112.93 392.63L387.07 392.63"/><rect class="cls-2" x="266.21" y="266.21" width="233.79" height="233.79" rx="116.89"/><path class="cls-3" d="M321.53 396.5a6.42 6.42 0 0 0-6.39 7.07 68.33 68.33 0 0 0 135.93 0 6.42 6.42 0 0 0-6.39-7.07z"/><path class="cls-4" d="M335.51 342.99L335.51 365.01"/><path class="cls-4" d="M430.23 342.99L430.23 365.01"/><rect class="cls-5" y="266.21" width="233.79" height="233.79" rx="116.89"/><path class="cls-6" d="M52.35 376.02L78.61 365.01 52.35 354"/><path class="cls-6" d="M176.91 376.02L150.65 365.01 176.91 354"/><path class="cls-7" d="M70 410.56C73.69 420.85 91 437 116.89 437s44.84-13.22 46.89-26.44"/><rect class="cls-8" x="266.21" width="233.79" height="233.79" rx="116.89"/><path class="cls-6" d="M320.83 96.71L347.08 85.7 320.83 74.69"/><path class="cls-6" d="M445.39 96.71L419.13 85.7 445.39 74.69"/><path class="cls-3" d="M321.53 123.68a6.42 6.42 0 0 0-6.39 7.07 68.33 68.33 0 0 0 135.93 0 6.42 6.42 0 0 0-6.39-7.07z"/><rect class="cls-3" width="233.79" height="233.79" rx="116.89"/><path class="cls-8" d="M55.32 131.08a6.42 6.42 0 0 0-6.39 7.07 68.33 68.33 0 0 0 135.93 0 6.42 6.42 0 0 0-6.39-7.07z"/><path class="cls-9" d="M69.53 80.39L69.53 102.41"/><path class="cls-9" d="M164.26 80.39L164.26 102.41"/></g></svg>