<svg xmlns="http://www.w3.org/2000/svg" viewBox="0 0 500 500"><defs><style>.cls-1{fill:#fff;}.cls-2{fill:#ffa972;}.cls-3{fill:#6b3425;}</style></defs><g id="Papa_Louie" data-name="Papa Louie"><path id="Hat" class="cls-1" d="M5.24,230.69l2.91,5.75A19.24,19.24,0,0,0,34,245l65.82-33.2L155,304.61a6.2,6.2,0,0,0,9.43,2c15.08-12.14,37.14-26.11,62.72-39.08,26.93-13.65,61.45-27.51,80.52-32.25a6.2,6.2,0,0,0,4-8.82l-55.38-93.2,5.33-2.68L315,103.18a19.25,19.25,0,0,0,8.5-25.85l-2.89-5.76A49,49,0,0,0,254.77,49.9l-17.23,8.68-7.79-15.46h0C211.56,7,171.87-9.72,141.14,5.79,111.92,20.54,101.33,59.06,116,93.85c-21.24-13.1-52.81-13.27-67.9,1-22.27,21.13-13.37,46.1-5.41,62l-15.75,8A49,49,0,0,0,5.24,230.69Z"/><circle id="Head" class="cls-2" cx="278.88" cy="354.7" r="145.3"/><g id="Face"><g id="Mustache"><path d="M173.22,453.39A53,53,0,0,0,207,441.61c12.61-10.47,15.85-21.36,22.41-35.4a54.65,54.65,0,0,1,34.27-29c31-8.6,62.86,11.64,62.86,44.44a52.24,52.24,0,0,1-3.41,18.61s0,0,0,.05c-10.17,31.08-49.69,54.25-96.85,54.25-42.91,0-79.47-19.17-93.39-46a5,5,0,0,1,7.54-6.21A53,53,0,0,0,173.22,453.39Z"/><path d="M460.93,449.73a50.5,50.5,0,0,1-32.16-11.23c-12-10-15.11-20.36-21.36-33.74a52.1,52.1,0,0,0-32.66-27.66c-29.54-8.19-59.92,11.1-59.92,42.37a49.75,49.75,0,0,0,3.25,17.74s0,0,0,.05c9.69,29.62,47.36,51.71,92.32,51.71,40.9,0,75.74-18.27,89-43.86a4.76,4.76,0,0,0-7.19-5.92A50.47,50.47,0,0,1,460.93,449.73Z"/></g><g id="Eyebrows"><path d="M366.17,247.48a1.87,1.87,0,0,1-.34,0c5.07-9.95,21.1-13.16,31-11.71,23.79,3.49,50.33,30.92,47.78,55.67-.55,5.31-2.52,13.25-8.76,13.35-25.71.42-25.59-37-39.31-50.71A29,29,0,0,0,366.17,247.48Z"/><path d="M323.05,243.72a1.23,1.23,0,0,0,.33,0c-5.06-9.95-21.09-13.15-31-11.7-23.79,3.48-50.33,30.92-47.78,55.67.55,5.31,2.52,13.25,8.76,13.35,25.71.42,25.58-37,39.31-50.71A29,29,0,0,1,323.05,243.72Z"/></g><path class="cls-3" d="M302.11,360.88A12.93,12.93,0,0,1,289.18,348V323.19a12.93,12.93,0,0,1,25.86,0V348A12.93,12.93,0,0,1,302.11,360.88Z"/><path class="cls-3" d="M352.71,360.88A12.93,12.93,0,0,1,339.78,348V336.11a12.93,12.93,0,1,1,25.86,0V348A12.93,12.93,0,0,1,352.71,360.88Z"/></g></g></svg>