<svg id="Layer_1" data-name="Layer 1" width="25" height="25" viewBox="0 0 25 25" fill="none" xmlns="http://www.w3.org/2000/svg">
  <title>X</title>
  <path d="M25 12.5C25 19.4036 19.4036 25 12.5 25C5.59644 25 0 19.4036 0 12.5C0 5.59644 5.59644 0 12.5 0C19.4036 0 25 5.59644 25 12.5Z" fill="black"/>
  <path d="M13.8318 11.3514L19.0436 5H17.8086L13.2832 10.5149L9.66881 5H5.5L10.9657 13.3395L5.5 20H6.73514L11.5141 14.1761L15.3312 20H19.5L13.8317 11.3514H13.832H13.8318ZM12.1401 13.4129L11.5863 12.5825L7.1801 5.97471H9.07709L12.6331 11.3074L13.1869 12.1378L17.8092 19.0694H15.9122L12.1403 13.4131V13.4128L12.1401 13.4129Z" fill="white"/>
</svg>
